Patient4_TMGait_0pt5_02_right_06_EMG.mot
version=1
nRows=27
nColumns=33
inDegrees=no
endheader
time	1LAddLong	2LGlutMax	3LGlutMed	4LIliopsoas	5LSemiMemb	6LBicFemLong	7LRecFem	8LVastMed	9LVastLat	10LGasMed	11LTibAnt	12lTibPost	13LPeroneusLong	14LSol	15LExtDigLong	16LFlexDigLong	17RAddLong	18RGlutMax	19RGlutMed	20RIliopsoas	21RSemiMemb	22RBicFemLong	23RRecFem	24RVastMed	25RVastLat	26RGasMed	27RTibAnt	28RTibPost	29RPeroneusLong	30RSol	31RExtDigLong	32RFlexDigLong
8.27	-0.008698	-0.25757	-0.17624	-0.005493	0.010223	-0.019989	-0.29312	0.001831	0.19424	-0.027466	-0.017395	0.002594	-0.098724	0.11002	0.002899	0.021515	-0.037231	-0.69733	-0.14771	0.007935	-0.14358	0.45593	0.22507	0.21439	-0.068512	-0.023346	0.11993	-0.001068	-0.36972	-0.20355	0.004272	-0.010986
8.271	-0.016785	-0.32059	-0.17639	-0.005341	0.007629	-0.024109	-0.25146	-0.044708	0.19012	-0.018311	-0.021057	0.006104	-0.10193	0.093231	0.004425	0.02182	0.007172	-0.83267	-0.93109	-0.048981	-0.30518	0.22446	0.24735	0.23499	-0.049591	-0.011444	0.10773	0.011597	-0.70831	-0.32654	-0.002136	-0.003357
8.272	-0.004578	-0.34271	-0.17502	-0.010529	0.001221	-0.012512	-0.24536	-0.015564	0.20142	0.11948	-0.021057	0.003662	-0.094147	0.058746	0.013733	0.026245	0.03418	-1.0219	-0.92209	-0.043945	-0.43518	-0.075836	0.37598	0.14282	-0.056	-0.010376	0.08667	-0.013123	-0.93307	-0.37949	-0.002594	-0.001831
8.273	-0.007019	-0.35431	-0.15533	0.009613	0.004883	-0.009613	-0.18555	-0.009308	0.21912	-0.000305	-0.007782	0.005035	-0.097656	0.053253	0.013275	0.022278	0.027008	-0.93246	-0.93216	0.061646	-0.72403	-0.27451	0.37125	0.072784	-0.11719	0.00351	0.042267	-0.021362	-0.19516	-0.45914	0.000458	0.001526
8.274	-0.012207	-0.37689	-0.168	0.014954	0.007477	-0.018005	-0.090179	-0.001831	0.25177	-0.12146	0.004578	0.007477	-0.10376	0.039825	0.025482	0.030975	-0.022888	-0.9465	-0.6868	0.20355	0.16525	-0.33997	0.33981	-0.004883	-0.15381	0.007172	0.12131	-0.026703	-0.73212	-0.33402	-0.002747	0.007782
8.275	-0.014648	-0.35385	-0.16007	-0.005341	0.00351	-0.032959	-0.11002	-0.00885	0.23727	-0.20538	-0.032654	0.025024	-0.1329	0.055084	0.12528	0.018311	-0.017242	-0.90408	0.19012	0.21561	0.64117	-0.3952	0.19791	-0.001373	-0.072479	0.004883	0.10635	-0.015564	-0.7605	-0.15839	-0.002441	0.001984
8.276	-0.000763	-0.34103	-0.14389	0.004425	0.002594	-0.028992	-0.20981	0	0.26855	-0.14786	-0.054016	0.021515	-0.11459	0.067749	0.13458	0.014648	-0.017548	-0.78903	0.22217	0.097504	0.60486	-0.33829	0.10178	0.03952	0.13336	0.04303	-0.059052	-0.022278	0.059357	-0.040741	-0.00061	0.006256
8.277	0.000458	-0.33035	-0.12756	0.007782	0.010834	-0.033875	-0.19547	-0.009613	0.28686	-0.032196	-0.10391	0.019836	-0.099182	0.090332	0.040588	0.016785	-0.022583	-0.64712	0.1297	0.014191	0.29419	-0.35004	0.14832	0.021667	0.53665	0.009766	-0.090637	-0.023346	1.123	0.010834	-0.001831	-0.00061
8.278	-0.007477	-0.36179	-0.12863	-0.001526	0.007629	-0.050964	-0.1416	-0.011749	0.28015	0.13229	-0.20142	0.021667	-0.028076	0.12985	-0.058899	0.000153	-0.012512	-0.63232	-0.24139	-0.043335	-0.018005	-0.38605	0.15564	0.018921	0.55496	-0.006866	-0.025482	-0.025024	1.4424	0.017242	0.001373	0.000305
8.279	-0.005341	-0.37476	-0.12116	0.003204	0.014496	-0.040283	-0.086365	-0.016937	0.29633	0.20966	-0.17014	0.015259	-0.018768	0.16113	-0.089417	0.001373	0.005798	-0.49911	-0.63278	-0.054169	-0.15015	-0.34515	0.16083	0.005035	0.31143	-0.018921	0.034332	-0.030823	0.82153	0.005951	0.000305	-0.003815
8.28	-0.005798	-0.38528	-0.12116	0.001678	0.014038	-0.069733	-0.097809	-0.01297	0.3064	0.14572	-0.049896	0.00946	-0.077362	0.19272	-0.048676	-0.000916	0.007629	-0.44998	-0.34424	-0.055542	-0.23254	-0.33463	0.16251	-0.090332	0.037079	-0.10284	0.10437	-0.033875	0.04303	0.086975	-0.000916	-0.007172
8.281	-0.005188	-0.39261	-0.11246	0.003357	0.010223	-0.0383	-0.10544	-0.009766	0.30319	0.085754	0.000458	0.015411	-0.15732	0.19394	-0.055847	-0.006866	0.00412	-0.4451	-0.46127	-0.088959	-0.16464	-0.25421	0.14572	-0.13596	0.1593	-0.10132	0.097504	-0.03952	-0.3392	0.067902	0	0.000305
8.282	-0.004425	-0.39719	-0.11032	-0.008698	0.010681	-0.043793	-0.099335	-0.016327	0.30914	0.024109	0.22583	0.010986	-0.177	0.18967	-0.18982	-0.008698	0.013275	-0.50537	-0.87814	-0.097656	0.002747	-0.27863	0.17425	-0.070496	0.027924	-0.053711	-0.005341	-0.045929	-0.46234	0.13672	-0.002899	0.001831
8.283	-0.004578	-0.40329	-0.10254	-0.002441	0.01297	-0.025024	-0.096893	-0.011902	0.29205	-0.067444	0.45273	0.012512	-0.10788	0.20996	-0.10086	-0.009003	0.023041	-0.47211	-0.87448	-0.16449	-0.027008	-0.19012	0.35111	-0.027771	-0.16205	-0.010986	-0.084076	-0.05249	-0.25162	0.23789	-0.000916	0.003815
8.284	-0.002289	-0.45685	-0.10864	-0.013733	0.024414	-0.017242	-0.084229	-0.014191	0.30518	-0.075836	0.48538	0.011902	-0.036926	0.24475	0.44418	-0.024567	0.019379	-0.51422	0.1918	-0.074005	-0.025482	-0.098877	0.39536	-0.14648	-0.082703	-0.015564	0.019836	-0.018005	-0.30182	0.14084	0.002136	-0.001221
8.285	-0.002136	-0.46845	-0.11688	-0.009766	0.011597	0.023499	-0.05661	-0.009918	0.30136	-0.007782	0.43488	0.012817	-0.083008	0.22781	0.036163	-0.007324	-0.017242	-0.59357	0.066223	0.14542	-0.071716	-0.046692	0.33707	-0.13214	-0.11429	0.003967	0.058441	0.003052	0.10239	-0.17975	-0.001068	-0.011902
8.286	-0.003662	-0.44403	-0.093536	0.005951	0.009308	0.021667	-0.018768	-0.004578	0.28153	0.010071	-0.19638	0.006561	-0.10696	0.20172	0.59631	-0.021515	0.014038	-0.50766	0.76263	0.17517	-0.18875	-0.044708	0.22888	-0.078583	-0.32181	0.047913	0.061493	-0.28412	0.37094	-0.51148	-0.000916	-0.00946
8.287	0.001526	-0.47165	-0.10422	0.012665	0.003052	0.028687	0.00824	-0.007935	0.27985	-0.024567	-0.35568	0.010681	-0.019836	0.23285	0.43427	-0.005646	0.001678	-0.32623	0.43259	0.13229	-0.014038	-0.084381	0.094299	0.10941	-0.53879	0.043182	0.1088	0.15747	0.064697	-0.44647	-0.005341	-0.003815
8.288	-0.000305	-0.43213	-0.092468	0.016937	0.006866	0.023651	0.030365	-0.003052	0.28198	-0.054626	-0.13275	0.014648	0.087738	0.26642	-0.11566	-0.001678	-0.019989	-0.27115	0.13046	0.055389	0.04715	-0.066833	-0.05722	0.17456	-0.57434	0.067291	0.13458	0.14618	0.032654	-0.24506	-0.000305	0.000916
8.289	-0.001526	-0.47882	-0.091553	0.005951	0.008545	0.019226	0.035706	0.000916	0.25696	-0.03952	-0.11597	0.011292	0.052795	0.25482	-0.7135	-0.013123	-0.00824	-0.15228	0.52033	0.007782	-0.21027	-0.11993	-0.17487	0.20096	-0.54321	0.06424	0.046844	-0.20721	-0.85403	-0.44327	-0.00061	-0.00473
8.29	0.00473	-0.44876	-0.066376	0.01358	-0.01236	0.018158	0.048523	0.003815	0.25528	0.01297	-0.050049	0.014343	-0.039978	0.20706	-0.066833	-0.018616	0.014496	-0.049438	0.80475	-0.11749	-0.13428	-0.20798	-0.16968	0.17792	-0.32898	0.03006	0.014801	-0.24857	0.25803	-0.90363	0.002289	-0.005493
8.291	0.005646	-0.43625	-0.058289	-0.005188	0.015411	0.033112	0.038452	0.002747	0.23743	0.037079	-0.003357	0.010223	-0.088806	0.15503	0.074463	-0.018005	0.030518	-0.009918	0.6015	-0.10971	0.06012	-0.22827	-0.00412	0.13412	-0.12772	-0.011597	0.009918	-0.073395	0.65292	-0.56839	0.00061	-0.001984
8.292	-0.003204	-0.39185	-0.063019	0.00061	-0.017853	0.013275	0.055084	0.001984	0.23468	0.034332	-0.006866	0.010529	-0.058899	0.10117	-0.030365	0.009613	0.053253	0.044861	0.062561	-0.000305	0.051575	-0.32394	0.075378	0.040588	-0.016632	-0.050964	-0.023804	0.006104	0.14236	-0.14252	0.000763	-0.000763
8.293	-0.005188	-0.43594	-0.057678	-0.001373	0.007782	0.011902	0.053864	0.002594	0.23666	0.019531	-0.03952	0.01236	-0.019989	0.087891	-0.74692	0.014648	0.11002	0.046234	-0.85312	0.085602	0.27206	-0.40955	0.057983	-0.12222	-0.040894	-0.024872	-0.054016	0.23163	-0.093536	0.30716	0.001678	0.001221
8.294	0.000153	-0.41016	-0.05661	0.009308	-0.004272	-0.013123	0.059052	0.010834	0.22842	0.035248	0.079498	0.004272	-0.061646	0.060425	-0.55328	0.012207	0.18158	0.13672	-0.29465	0.12833	0.11551	-0.40039	0.073853	-0.18662	0.083466	-0.03479	-0.043793	0.26443	-0.014191	0.15778	-0.000153	-0.004883
8.295	0.000305	-0.3981	-0.072021	0.010529	0.010681	-0.010834	0.062103	0.007324	0.22705	0.017853	0.077362	0.010681	-0.052185	0.056305	-0.16083	0.00885	0.13458	0.053558	-0.90088	0.079346	-0.59372	-0.16861	0.027161	-0.07431	0.19073	-0.022736	0.027313	0.089874	0.018005	0.58731	0.000458	-0.002899
8.296	0.004425	-0.35065	-0.079651	0.000305	-0.002747	-0.002594	0.071869	0.007782	0.21118	0.027008	-0.20279	0.010071	-0.016937	0.068054	-0.063019	0.018921	-0.076599	0.02182	-1.2398	0.001678	-0.73044	0.12772	-0.089874	0.073853	0.15213	0.018005	0.067291	0.027161	-0.028076	0.91507	0.002136	-0.013123
